{"accessors" : [{"bufferView" : 0, "byteOffset" : 0, "componentType" : 5123, "count" : 14838, "type" : "SCALAR", "max" : [12123], "min" : [0]}, {"bufferView" : 1, "byteOffset" : 0, "componentType" : 5126, "count" : 12124, "type" : "VEC3", "max" : [5.680928707122803, 8.120930671691895, 2.8270490169525146], "min" : [-5.680928707122803, -0.04275989532470703, -1.202113151550293], "name" : "POSITION"}, {"bufferView" : 1, "byteOffset" : 12, "componentType" : 5126, "count" : 12124, "type" : "VEC3", "max" : [1.0000033378601074, 1.0000044107437134, 0.9988887310028076], "min" : [-1.0000033378601074, -1.0000044107437134, -0.9994637966156006], "name" : "NORMAL"}, {"bufferView" : 1, "byteOffset" : 24, "componentType" : 5126, "count" : 12124, "type" : "VEC2", "max" : [0.9713131189346313, 0.9832134246826172], "min" : [0.016786590218544006, 0.009133458137512207], "name" : "TEXCOORD_0"}, {"bufferView" : 0, "byteOffset" : 29676, "componentType" : 5123, "count" : 1302, "type" : "SCALAR", "max" : [1069], "min" : [0]}, {"bufferView" : 2, "byteOffset" : 0, "componentType" : 5126, "count" : 1070, "type" : "VEC3", "max" : [0.9569908380508423, 8.187026023864746, 0.9258759021759033], "min" : [-0.855717658996582, 6.757783889770508, -1.523347020149231], "name" : "POSITION"}, {"bufferView" : 2, "byteOffset" : 12, "componentType" : 5126, "count" : 1070, "type" : "VEC3", "max" : [0.9995736479759216, 0.9870051145553589, 0.9833599328994751], "min" : [-0.9948583841323853, -0.9820430278778076, -0.968743085861206], "name" : "NORMAL"}, {"bufferView" : 2, "byteOffset" : 24, "componentType" : 5126, "count" : 1070, "type" : "VEC2", "max" : [0.9389045238494873, 0.9996033906936646], "min" : [0.00039659850881434977, 0.00039654970169067383], "name" : "TEXCOORD_0"}], "asset" : {"generator" : "Aspose.3D 22.1", "version" : "2.0"}, "buffers" : [{"uri" : "data:application/octet-stream;base64,", "byteLength" : 548772}], "bufferViews" : [{"buffer" : 0, "byteOffset" : 0, "byteLength" : 32280, "target" : 34963}, {"buffer" : 0, "byteOffset" : 32284, "byteLength" : 474816, "byteStride" : 32, "target" : 34962}, {"buffer" : 0, "byteOffset" : 507104, "byteLength" : 41664, "byteStride" : 32, "target" : 34962}], "images" : [{"uri" : "data:image/png;base64,"}, {"uri" : "data:image/png;base64,"}], "materials" : [{"name" : "MAT_CrashSkin", "pbrMetallicRoughness" : {"baseColorFactor" : [1, 1, 1, 1], "baseColorTexture" : {"index" : 0, "texCoord" : 0}, "metallicFactor" : 0, "roughnessFactor" : 0.5}, "emissiveFactor" : [0, 0, 0], "alphaMode" : "OPAQUE", "doubleSided" : true}, {"name" : "MAT_Hair", "pbrMetallicRoughness" : {"baseColorFactor" : [1, 1, 1, 1], "baseColorTexture" : {"index" : 1, "texCoord" : 0}, "metallicFactor" : 0, "roughnessFactor" : 0.5}, "emissiveFactor" : [0, 0, 0], "alphaMode" : "OPAQUE", "doubleSided" : true}], "meshes" : [{"primitives" : [{"attributes" : {"POSITION" : 1, "NORMAL" : 2, "TEXCOORD_0" : 3}, "indices" : 0, "material" : 0, "mode" : 4}, {"attributes" : {"POSITION" : 5, "NORMAL" : 6, "TEXCOORD_0" : 7}, "indices" : 4, "material" : 1, "mode" : 4}]}], "nodes" : [{"mesh" : 0, "name" : "Cylinder"}, {"children" : [0], "name" : "Armature"}], "samplers" : [{"magFilter" : 9729, "minFilter" : 9987, "wrapS" : 10497, "wrapT" : 10497}, {"magFilter" : 9729, "minFilter" : 9987, "wrapS" : 10497, "wrapT" : 10497}], "scene" : 0, "scenes" : [{"nodes" : [1]}], "textures" : [{"sampler" : 0, "source" : 0}, {"sampler" : 1, "source" : 1}]}